# File created by Blade
# Date/Time:  Wed Sep 24 20:15:16 2014
# Frame Rate: 120.000 fps
#------------------------------------------------------
:FULLY-SPECIFIED
:DEGREES
3377
root -5.934411 32.762973 -5.081469 16.599208 -3.425490 -3.007801
Spine -20.176832 0.360479 1.974898
Head -4.564826 -19.376583 12.567676
LeftShoulder -4.775686 18.881374 11.965698
LeftArm 20.945004 26.275151 -76.610386
LeftForeArm -2.841209 -0.000000 19.456635
LeftHand -22.209714 0.000000 -3.561161
LeftHandThumb1 -26.253704 0.000000 33.147579
RightShoulder -19.308052 12.577864 -10.977567
RightArm -0.674797 -30.228840 90.244491
RightForeArm 51.343180 -0.000000 72.137379
RightHand -25.577369 -0.000000 9.380745
RightHandThumb1 -24.326973 -0.000000 -32.862282
LeftUpLeg -12.359383 10.736690 3.797327
LeftLeg 0.473375 -0.000000 -0.000000
LeftFoot -13.802673 9.511910 -18.340499
LeftToeBase 9.627463 -0.000000 -0.000000
RightUpLeg -15.009466 -3.238709 -1.086747
RightLeg 3.291024 -0.000000 -0.000000
RightFoot -8.220954 0.439663 -12.783692
RightToeBase -0.744260 -0.000000 0.000000
3378
root -5.937718 32.762837 -5.082155 16.577649 -3.398809 -3.023918
Spine -20.134362 0.388601 2.027719
Head -4.639524 -19.489388 12.580733
LeftShoulder -4.752698 18.844982 11.949911
LeftArm 20.906154 26.228493 -76.662602
LeftForeArm -2.818788 0.000000 19.477060
LeftHand -22.214815 -0.000000 -3.490178
LeftHandThumb1 -26.253704 0.000000 33.147579
RightShoulder -19.277380 12.591023 -10.963713
RightArm -0.052843 -32.853721 90.265271
RightForeArm 52.099017 -0.000000 71.272331
RightHand -25.890827 -0.000000 9.070599
RightHandThumb1 -24.326973 -0.000000 -32.862282
LeftUpLeg -12.340148 10.713110 3.829706
LeftLeg 0.474610 -0.000000 -0.000000
LeftFoot -13.799247 9.520070 -18.477509
LeftToeBase 9.515441 -0.000000 -0.000000
RightUpLeg -14.968685 -3.273312 -1.058726
RightLeg 3.253972 -0.000000 -0.000000
RightFoot -8.188682 0.466318 -12.791541
RightToeBase -0.834530 -0.000000 0.000000
3379
root -5.944019 32.762864 -5.088208 16.625755 -3.452636 -3.028226
Spine -20.170438 0.493759 2.000499
Head -4.718323 -19.648882 12.653762
LeftShoulder -4.715926 18.808364 11.995878
LeftArm 20.848103 26.182629 -76.724995
LeftForeArm -2.780532 0.000000 19.508110
LeftHand -22.221397 -0.000000 -3.470356
LeftHandThumb1 -26.253704 0.000000 33.147579
RightShoulder -19.282381 12.562097 -10.908735
RightArm 0.620532 -35.389307 90.254214
RightForeArm 52.539105 0.000000 70.371252
RightHand -26.162533 -0.000000 9.763416
RightHandThumb1 -24.326973 -0.000000 -32.862282
LeftUpLeg -12.391371 10.804435 3.814416
LeftLeg 0.474782 -0.000000 -0.000000
LeftFoot -13.766454 9.484974 -18.456603
LeftToeBase 9.432542 -0.000000 -0.000000
RightUpLeg -15.034905 -3.197442 -1.060337
RightLeg 3.257712 -0.000000 -0.000000
RightFoot -8.178219 0.452330 -12.788784
RightToeBase -0.823496 -0.000000 0.000000
3380
root -5.948678 32.762929 -5.091697 16.646210 -3.483425 -3.031784
Spine -20.177337 0.585033 1.991394
Head -4.794577 -19.798770 12.711416
LeftShoulder -4.682480 18.814710 12.015320
LeftArm 20.853512 26.148611 -76.743746
LeftForeArm -2.808181 0.000000 19.539424
LeftHand -22.241372 -0.000000 -3.445271
LeftHandThumb1 -26.253704 0.000000 33.147579
RightShoulder -19.237986 12.556828 -10.846332
RightArm 1.262204 -38.015581 90.182712
RightForeArm 53.151834 -0.000000 69.701789
RightHand -25.969119 -0.000000 9.515780
RightHandThumb1 -24.326973 -0.000000 -32.862282
LeftUpLeg -12.408891 10.836868 3.814575
LeftLeg 0.467337 -0.000000 -0.000000
LeftFoot -13.764965 9.486768 -18.492195
LeftToeBase 9.438141 -0.000000 -0.000000
RightUpLeg -15.063528 -3.150606 -1.057641
RightLeg 3.256298 -0.000000 -0.000000
RightFoot -8.175027 0.430863 -12.789080
RightToeBase -0.828428 -0.000000 0.000000
